<svg xmlns="http://www.w3.org/2000/svg" viewBox="0 0 512 512" width="512" height="512"><defs><linearGradient id="g" x1="0" y1="0" x2="1" y2="1"><stop offset="0%" stop-color="#ffe29a"/><stop offset="100%" stop-color="#f7c948"/></linearGradient><style>.fill{fill:url(#g);stroke:none}.thin{stroke-width:1.25}</style></defs><rect width="512" height="512" rx="112" fill="#0b1020"/><g transform="translate(77 77) scale(14.916666666666666)" fill="none" stroke="url(#g)" stroke-width="1.75" stroke-linecap="round" stroke-linejoin="round"><path d="M3.5 8V5.5a2 2 0 0 1 2-2H8M16 3.5h2.5a2 2 0 0 1 2 2V8M20.5 16v2.5a2 2 0 0 1-2 2H16M8 20.5H5.5a2 2 0 0 1-2-2V16"/>
  <path d="M8 8h8M8 15.5h8M8 18h4.5" class="thin"/>
  <path d="M3.5 11.75h17"/></g></svg>