<svg xmlns="http://www.w3.org/2000/svg" style="display:none">
<!--
  MVR Tools icon set.
  One 24×24 grid, 1.75 stroke, round caps and joins, currentColor throughout,
  so every icon inherits the theme accent and stays crisp at any size.
  Referenced as <use href="assets/icons.svg#i-name">.
-->
<defs>
  <style>
    symbol { fill: none; stroke: currentColor; stroke-width: 1.75; stroke-linecap: round; stroke-linejoin: round; }
    symbol .fill { fill: currentColor; stroke: none; }
    symbol .thin { stroke-width: 1.25; }
  </style>
</defs>

<!-- ============ TOP-LEVEL CATEGORIES ============ -->

<symbol id="i-conversions" viewBox="0 0 24 24">
  <path d="M4 8h13l-3.2-3.2M20 16H7l3.2 3.2"/>
</symbol>

<symbol id="i-finance" viewBox="0 0 24 24">
  <rect x="2.5" y="6" width="19" height="12" rx="2"/>
  <circle cx="12" cy="12" r="2.6"/>
  <path d="M6 9.5v5M18 9.5v5"/>
</symbol>

<symbol id="i-mathematics" viewBox="0 0 24 24">
  <path d="M4 6h6M7 3v6M4 15h6M4 19h6M14 5.5l5 5M19 5.5l-5 5M14 17h6M17 14v6"/>
</symbol>

<symbol id="i-engineering" viewBox="0 0 24 24">
  <circle cx="12" cy="12" r="3.2"/>
  <path d="M12 2.5v2.6M12 18.9v2.6M21.5 12h-2.6M5.1 12H2.5M18.7 5.3l-1.8 1.8M7.1 16.9l-1.8 1.8M18.7 18.7l-1.8-1.8M7.1 7.1L5.3 5.3"/>
</symbol>

<symbol id="i-health" viewBox="0 0 24 24">
  <path d="M20.6 8.3c0 4.6-6.2 8.6-8.6 10.4-2.4-1.8-8.6-5.8-8.6-10.4A4.3 4.3 0 0 1 12 6.6a4.3 4.3 0 0 1 8.6 1.7z"/>
  <path d="M3.8 12.4h3.4l1.4-2.4 2 4.4 1.5-3 1 1h3.6" class="thin"/>
</symbol>

<symbol id="i-design" viewBox="0 0 24 24">
  <path d="M12 3a9 9 0 1 0 0 18c1 0 1.7-.8 1.7-1.7 0-.5-.2-.9-.5-1.2-.3-.3-.5-.7-.5-1.2 0-1 .8-1.7 1.7-1.7h2A4.6 4.6 0 0 0 21 10.6C21 6.4 17 3 12 3z"/>
  <circle cx="7.5" cy="11" r="1.2" class="fill"/>
  <circle cx="10.5" cy="7" r="1.2" class="fill"/>
  <circle cx="15" cy="7.8" r="1.2" class="fill"/>
</symbol>

<symbol id="i-utilities" viewBox="0 0 24 24">
  <path d="M15.6 4.4a4.8 4.8 0 0 0-5.9 6l-5.4 5.4a1.6 1.6 0 0 0 0 2.3l1.6 1.6a1.6 1.6 0 0 0 2.3 0l5.4-5.4a4.8 4.8 0 0 0 6-5.9l-2.8 2.8-2.6-.7-.7-2.6z"/>
</symbol>

<symbol id="i-time" viewBox="0 0 24 24">
  <circle cx="12" cy="12" r="8.8"/>
  <path d="M12 6.8V12l3.4 2"/>
</symbol>

<symbol id="i-developer" viewBox="0 0 24 24">
  <path d="M8.4 7.6 3.6 12l4.8 4.4M15.6 7.6 20.4 12l-4.8 4.4M13.6 4.6l-3.2 14.8"/>
</symbol>

<!-- ============ CONVERSION FAMILIES ============ -->

<symbol id="i-length" viewBox="0 0 24 24">
  <rect x="2" y="8" width="20" height="8" rx="1.6"/>
  <path d="M6 8v3M10 8v4.5M14 8v3M18 8v4.5"/>
</symbol>

<symbol id="i-mass" viewBox="0 0 24 24">
  <path d="M12 3.4v2.4M4.5 20.6h15M6.6 20.6 8 8.2h8l1.4 12.4"/>
  <circle cx="12" cy="6.6" r="1.6"/>
</symbol>

<symbol id="i-temperature" viewBox="0 0 24 24">
  <path d="M13.8 13.6V5.4a1.9 1.9 0 0 0-3.8 0v8.2a3.9 3.9 0 1 0 3.8 0z"/>
  <path d="M11.9 9.2v5.6" class="thin"/>
  <path d="M16.4 6.4h3M16.4 9.8h2" class="thin"/>
</symbol>

<symbol id="i-volume" viewBox="0 0 24 24">
  <path d="M7 3.6h10l-1.2 16.2a1.2 1.2 0 0 1-1.2 1.1H9.4a1.2 1.2 0 0 1-1.2-1.1z"/>
  <path d="M8 12.4c1.4-1 2.7-1 4 0s2.6 1 3.9 0" class="thin"/>
  <path d="M16.4 7.6h-2M16.2 9.9h-1.4" class="thin"/>
</symbol>

<symbol id="i-area" viewBox="0 0 24 24">
  <rect x="3.4" y="3.4" width="17.2" height="17.2" rx="1.6" stroke-dasharray="3.6 2.6"/>
  <path d="M8 16 16 8M16 8h-3.4M16 8v3.4"/>
</symbol>

<symbol id="i-speed" viewBox="0 0 24 24">
  <path d="M3.4 17.4a9.4 9.4 0 1 1 17.2 0"/>
  <path d="M12 12.6 16.6 8"/>
  <circle cx="12" cy="14" r="1.5" class="fill"/>
  <path d="M4.6 12.6h1.6M17.8 12.6h1.6M12 4.6v1.6" class="thin"/>
</symbol>

<symbol id="i-pressure" viewBox="0 0 24 24">
  <circle cx="12" cy="12" r="8.8"/>
  <path d="M12 12 8.6 8.6"/>
  <circle cx="12" cy="12" r="1.4" class="fill"/>
  <path d="M12 3.6v1.6M20.4 12h-1.6M12 20.4v-1.6M3.6 12h1.6" class="thin"/>
</symbol>

<symbol id="i-energy" viewBox="0 0 24 24">
  <path d="M13.4 2.6 4.6 13.4h6l-1 8 8.8-10.8h-6z"/>
</symbol>

<symbol id="i-power" viewBox="0 0 24 24">
  <path d="M8.6 3.4v4.2M15.4 3.4v4.2"/>
  <path d="M5.6 7.6h12.8v3.6a6.4 6.4 0 0 1-6.4 6.4 6.4 6.4 0 0 1-6.4-6.4z"/>
  <path d="M12 17.6v3"/>
</symbol>

<symbol id="i-data" viewBox="0 0 24 24">
  <ellipse cx="12" cy="6" rx="7.6" ry="3"/>
  <path d="M4.4 6v6c0 1.7 3.4 3 7.6 3s7.6-1.3 7.6-3V6"/>
  <path d="M4.4 12v6c0 1.7 3.4 3 7.6 3s7.6-1.3 7.6-3v-6"/>
</symbol>

<symbol id="i-angle" viewBox="0 0 24 24">
  <path d="M4 20h16L4 5.6z"/>
  <path d="M4 13.6a7 7 0 0 0 6.4 6.4" class="thin"/>
</symbol>

<!-- ============ CALCULATORS ============ -->

<symbol id="i-compound-interest" viewBox="0 0 24 24">
  <path d="M3.4 19.4h17.2"/>
  <path d="M4.6 16.4c3.4 0 4.6-9.4 8-9.4 2.6 0 3.6 5 7.4 5"/>
  <path d="M17.4 5.6h3.2v3.2" class="thin"/>
</symbol>

<symbol id="i-loan-payment" viewBox="0 0 24 24">
  <path d="M3.4 9.4 12 4l8.6 5.4M4.8 9.8v8.4M19.2 9.8v8.4M3.4 20.6h17.2"/>
  <path d="M8.6 12.4v5M12 12.4v5M15.4 12.4v5" class="thin"/>
</symbol>

<symbol id="i-percentage" viewBox="0 0 24 24">
  <circle cx="7.4" cy="7.4" r="3"/>
  <circle cx="16.6" cy="16.6" r="3"/>
  <path d="M19 5 5 19"/>
</symbol>

<symbol id="i-vat-sales-tax" viewBox="0 0 24 24">
  <path d="M5.4 2.8v18.4l2.2-1.6 2.2 1.6 2.2-1.6 2.2 1.6 2.2-1.6 2.2 1.6V2.8z"/>
  <path d="M9 8.4h6M9 12h6M9 15.6h3.4" class="thin"/>
</symbol>

<symbol id="i-quadratic-solver" viewBox="0 0 24 24">
  <path d="M3.4 20.6C3.4 9 7.4 3.4 12 3.4s8.6 5.6 8.6 17.2"/>
  <path d="M2.6 14.6h18.8" class="thin"/>
  <circle cx="12" cy="14.6" r="1.3" class="fill"/>
</symbol>

<symbol id="i-statistics" viewBox="0 0 24 24">
  <path d="M3.4 20.6h17.2"/>
  <rect x="5" y="12" width="3.4" height="6"/>
  <rect x="10.3" y="7.4" width="3.4" height="10.6"/>
  <rect x="15.6" y="9.8" width="3.4" height="8.2"/>
</symbol>

<symbol id="i-ohms-law" viewBox="0 0 24 24">
  <path d="M2.6 14h3.2l2-6 3 12 2.6-9 1.8 3h6.2"/>
</symbol>

<symbol id="i-bmi" viewBox="0 0 24 24">
  <circle cx="12" cy="5.4" r="2.6"/>
  <path d="M12 8v7.4M12 15.4 8.6 21M12 15.4 15.4 21M7.4 11h9.2"/>
</symbol>

<symbol id="i-aspect-ratio" viewBox="0 0 24 24">
  <rect x="2.6" y="5.4" width="18.8" height="13.2" rx="1.6"/>
  <path d="M6.6 9.4h4v4M17.4 14.6h-4v-4" class="thin"/>
</symbol>

<symbol id="i-fuel-efficiency" viewBox="0 0 24 24">
  <path d="M4 20.6V5a2 2 0 0 1 2-2h5.6a2 2 0 0 1 2 2v15.6M2.6 20.6h12.4"/>
  <path d="M6.4 7.4h4.8v3.4H6.4z" class="thin"/>
  <path d="M13.6 9h3.6a1.6 1.6 0 0 1 1.6 1.6v5.8a1.6 1.6 0 0 0 3.2 0V8.4L19.6 6"/>
</symbol>

<symbol id="i-date-difference" viewBox="0 0 24 24">
  <rect x="3.4" y="5" width="17.2" height="16" rx="2"/>
  <path d="M3.4 9.8h17.2M8.4 2.8v4M15.6 2.8v4"/>
  <path d="M7.6 14h2.4M14 14h2.4M7.6 17.4h2.4M14 17.4h2.4" class="thin"/>
</symbol>

<!-- ============ DEVELOPER TOOLS ============ -->

<symbol id="i-json-formatter" viewBox="0 0 24 24">
  <path d="M9 3.4c-2.4 0-2.4 3.4-2.4 5.2S5.4 12 4 12c1.4 0 2.6.8 2.6 3.4S6.6 20.6 9 20.6"/>
  <path d="M15 3.4c2.4 0 2.4 3.4 2.4 5.2S18.6 12 20 12c-1.4 0-2.6.8-2.6 3.4s0 5.2-2.4 5.2"/>
</symbol>

<symbol id="i-xml-formatter" viewBox="0 0 24 24">
  <path d="M7.6 8 4 12l3.6 4M16.4 8 20 12l-3.6 4M13.4 6.4l-2.8 11.2"/>
</symbol>

<symbol id="i-csv-to-json" viewBox="0 0 24 24">
  <rect x="2.6" y="4.6" width="8" height="14.8" rx="1.4"/>
  <path d="M2.6 9h8M6.6 9v10.4" class="thin"/>
  <path d="M17.4 5.6c-1.6 0-1.6 2.4-1.6 3.8s-.8 2.6-1.8 2.6c1 0 1.8.6 1.8 2.4s0 3.8 1.6 3.8"/>
  <path d="M12.6 12h-1.6" class="thin"/>
</symbol>

<symbol id="i-base64" viewBox="0 0 24 24">
  <path d="M3.4 8.4h6.2M6.5 5.4v6M3.4 15.6h6.2M3.4 18.6h6.2" class="thin"/>
  <path d="M13.4 6.6h7.2l-2.4-2.4M20.6 17.4h-7.2l2.4 2.4"/>
</symbol>

<symbol id="i-url-encoder" viewBox="0 0 24 24">
  <path d="M10 13.4a3.8 3.8 0 0 0 5.7.4l2.8-2.8a3.8 3.8 0 0 0-5.4-5.4l-1.6 1.6"/>
  <path d="M14 10.6a3.8 3.8 0 0 0-5.7-.4l-2.8 2.8a3.8 3.8 0 0 0 5.4 5.4l1.6-1.6"/>
</symbol>

<symbol id="i-html-entities" viewBox="0 0 24 24">
  <path d="M18.4 20.6 7.6 9.8a3.2 3.2 0 1 1 4.6-4.4c1.2 1.3 1 3-.4 4.4l-4.6 4.6a3.6 3.6 0 0 0 0 5.2 3.8 3.8 0 0 0 5.2 0l4.4-4.4"/>
  <path d="M14.6 20.6h4" class="thin"/>
</symbol>

<symbol id="i-jwt-decoder" viewBox="0 0 24 24">
  <path d="M12 2.8 4.4 6v6.4c0 4.4 3.2 7.6 7.6 8.8 4.4-1.2 7.6-4.4 7.6-8.8V6z"/>
  <path d="M9.2 12.2l2 2 3.6-3.8" class="thin"/>
</symbol>

<symbol id="i-meta-tag-generator" viewBox="0 0 24 24">
  <path d="M12.6 3.4H20v7.4l-8.8 8.8a2 2 0 0 1-2.8 0l-4.6-4.6a2 2 0 0 1 0-2.8z"/>
  <circle cx="16.2" cy="7.8" r="1.4" class="fill"/>
</symbol>

<symbol id="i-robots-txt-generator" viewBox="0 0 24 24">
  <rect x="4" y="8" width="16" height="11.6" rx="2.4"/>
  <path d="M12 4v4M9.6 2.6h4.8" class="thin"/>
  <circle cx="9" cy="13" r="1.3" class="fill"/>
  <circle cx="15" cy="13" r="1.3" class="fill"/>
  <path d="M9.6 16.6h4.8" class="thin"/>
  <path d="M4 12H2.4M21.6 12H20" class="thin"/>
</symbol>

<symbol id="i-htaccess-generator" viewBox="0 0 24 24">
  <rect x="3" y="4" width="18" height="6" rx="1.6"/>
  <rect x="3" y="14" width="18" height="6" rx="1.6"/>
  <circle cx="7" cy="7" r="1.2" class="fill"/>
  <circle cx="7" cy="17" r="1.2" class="fill"/>
  <path d="M11 7h6M11 17h6" class="thin"/>
</symbol>

<symbol id="i-uuid-generator" viewBox="0 0 24 24">
  <path d="M12 3.4a5.4 5.4 0 0 0-5.4 5.4v2.4c0 3.4-.8 5.6-2 7.4"/>
  <path d="M12 7.4a1.4 1.4 0 0 0-1.4 1.4v2.8c0 4-1 6.6-2.4 8.6" class="thin"/>
  <path d="M12 3.4a5.4 5.4 0 0 1 5.4 5.4v2.4c0 2.6.4 4.6 1.2 6.2"/>
  <path d="M12 7.4a1.4 1.4 0 0 1 1.4 1.4v2.8c0 4.4.6 7 1.6 9" class="thin"/>
</symbol>

<symbol id="i-lorem-ipsum" viewBox="0 0 24 24">
  <path d="M4 5.4h16M4 9.6h16M4 13.8h16M4 18h9.4"/>
</symbol>

<symbol id="i-slug-generator" viewBox="0 0 24 24">
  <path d="M10.4 13.6a3.6 3.6 0 0 0 5.4.4l2.4-2.4a3.6 3.6 0 0 0-5.1-5.1L12 7.6"/>
  <path d="M13.6 10.4a3.6 3.6 0 0 0-5.4-.4l-2.4 2.4a3.6 3.6 0 0 0 5.1 5.1l1.1-1.1"/>
  <path d="M3.4 20.6h4M16.6 20.6h4" class="thin"/>
</symbol>

<symbol id="i-case-converter" viewBox="0 0 24 24">
  <path d="M2.6 17.4 7 6.6l4.4 10.8M4.2 13.8h5.6"/>
  <path d="M21.4 17.4v-5a3 3 0 0 0-3-3 3 3 0 0 0-2.6 1.4"/>
  <path d="M21.4 14.6a3 3 0 0 0-3-.8c-1.4.3-2.2 1.2-2.2 2.2 0 1 .8 1.8 2 1.8s3.2-.8 3.2-3.2z"/>
</symbol>

<symbol id="i-color-converter" viewBox="0 0 24 24">
  <path d="M12 3.4c3.6 4 5.4 6.8 5.4 9a5.4 5.4 0 0 1-10.8 0c0-2.2 1.8-5 5.4-9z"/>
  <path d="M9.2 13.4a2.8 2.8 0 0 0 2.8 2.8" class="thin"/>
</symbol>

<symbol id="i-css-gradient" viewBox="0 0 24 24">
  <rect x="3.4" y="3.4" width="17.2" height="17.2" rx="2"/>
  <path d="M3.4 16.6h17.2M3.4 13h17.2M3.4 9.4h17.2" class="thin" opacity=".55"/>
  <path d="M3.4 6.2h17.2" class="thin" opacity=".28"/>
</symbol>

<symbol id="i-qr-code-generator" viewBox="0 0 24 24">
  <rect x="3" y="3" width="7" height="7" rx="1"/>
  <rect x="14" y="3" width="7" height="7" rx="1"/>
  <rect x="3" y="14" width="7" height="7" rx="1"/>
  <path d="M5.6 5.6h1.8v1.8H5.6zM16.6 5.6h1.8v1.8h-1.8zM5.6 16.6h1.8v1.8H5.6z" class="fill"/>
  <path d="M14 14h2.4v2.4H14zM18.6 18.6H21V21h-2.4zM14 18.6h2.4V21H14zM18.6 14H21v2.4h-2.4z" class="fill"/>
</symbol>

<symbol id="i-favicon-generator" viewBox="0 0 24 24">
  <rect x="2.6" y="4" width="18.8" height="16" rx="2"/>
  <path d="M2.6 8.4h18.8"/>
  <circle cx="5.6" cy="6.2" r=".8" class="fill"/>
  <circle cx="8.2" cy="6.2" r=".8" class="fill"/>
  <path d="m12 10.8 1.5 3 3.3.5-2.4 2.3.6 3.3-3-1.6-3 1.6.6-3.3-2.4-2.3 3.3-.5z"/>
</symbol>

<symbol id="i-image-resizer" viewBox="0 0 24 24">
  <rect x="2.6" y="4.6" width="14.8" height="12.4" rx="1.8"/>
  <circle cx="7.4" cy="9" r="1.4"/>
  <path d="m2.6 14.4 3.8-3.2 4.6 3.8 2.6-2 3.8 3"/>
  <path d="M21.4 13.6v7.8h-7.8M17.6 17.4l3.8 4" class="thin"/>
</symbol>

<!-- ============ UI ============ -->

<symbol id="i-search" viewBox="0 0 24 24">
  <circle cx="11" cy="11" r="7"/><path d="m21 21-4.3-4.3"/>
</symbol>

<symbol id="i-menu" viewBox="0 0 24 24">
  <path d="M4 7h16M4 12h16M4 17h16"/>
</symbol>

<symbol id="i-close" viewBox="0 0 24 24">
  <path d="M6 6l12 12M18 6L6 18"/>
</symbol>

<symbol id="i-home" viewBox="0 0 24 24">
  <path d="M3.4 10.4 12 3.4l8.6 7v9.2a1.4 1.4 0 0 1-1.4 1.4H4.8a1.4 1.4 0 0 1-1.4-1.4z"/>
  <path d="M9.4 21v-6.6h5.2V21" class="thin"/>
</symbol>

<symbol id="i-chevron" viewBox="0 0 24 24">
  <path d="m9 5 7 7-7 7"/>
</symbol>

<symbol id="i-grid" viewBox="0 0 24 24">
  <rect x="3.4" y="3.4" width="7.2" height="7.2" rx="1.2"/>
  <rect x="13.4" y="3.4" width="7.2" height="7.2" rx="1.2"/>
  <rect x="3.4" y="13.4" width="7.2" height="7.2" rx="1.2"/>
  <rect x="13.4" y="13.4" width="7.2" height="7.2" rx="1.2"/>
</symbol>

<!-- ============ BUSINESS & ACCOUNTING ============ -->

<symbol id="i-business" viewBox="0 0 24 24">
  <rect x="2.6" y="7.4" width="18.8" height="13.2" rx="2"/>
  <path d="M8.6 7.4V5.2a1.8 1.8 0 0 1 1.8-1.8h3.2a1.8 1.8 0 0 1 1.8 1.8v2.2"/>
  <path d="M2.6 12.6h18.8" class="thin"/>
  <path d="M10.4 12.6h3.2v2.2h-3.2z" class="fill"/>
</symbol>

<symbol id="i-currency-converter" viewBox="0 0 24 24">
  <circle cx="7.6" cy="7.6" r="4.6"/>
  <circle cx="16.4" cy="16.4" r="4.6"/>
  <path d="M6.2 8.6h2.8M6.2 6.6h2.8M7.6 5.2v4.8" class="thin"/>
  <path d="M14.6 14.6h3.6M14.8 17.4h3.4M16.4 13.4v6" class="thin"/>
</symbol>

<symbol id="i-profit-margin" viewBox="0 0 24 24">
  <path d="M3.4 20.6h17.2"/>
  <path d="M4.6 16.6 9.4 11l3.6 3.4 6.4-7.6"/>
  <path d="M16.6 6.4h3.4v3.4" class="thin"/>
  <circle cx="9.4" cy="11" r="1.2" class="fill"/>
  <circle cx="13" cy="14.4" r="1.2" class="fill"/>
</symbol>

<symbol id="i-break-even" viewBox="0 0 24 24">
  <path d="M3.4 20.6h17.2M3.4 20.6V3.4" class="thin"/>
  <path d="M4.6 17.4 20 6.6M4.6 6.6 20 17.4"/>
  <circle cx="12.3" cy="12" r="1.8"/>
</symbol>

<symbol id="i-roi" viewBox="0 0 24 24">
  <circle cx="12" cy="12" r="8.8"/>
  <path d="M12 6.6v10.8M14.8 8.8H10.6a1.9 1.9 0 0 0 0 3.8h2.8a1.9 1.9 0 0 1 0 3.8H9.2" class="thin"/>
  <path d="M18.4 4.6h2.6v2.6" class="thin"/>
</symbol>

<symbol id="i-npv-irr" viewBox="0 0 24 24">
  <path d="M3.4 20.6h17.2"/>
  <rect x="4.8" y="13.6" width="2.8" height="4.4"/>
  <rect x="9.2" y="10.4" width="2.8" height="7.6"/>
  <rect x="13.6" y="7.6" width="2.8" height="10.4"/>
  <rect x="18" y="5" width="2.8" height="13"/>
  <path d="M3.4 4.6 6.2 7.4" class="thin"/>
</symbol>

<symbol id="i-cagr" viewBox="0 0 24 24">
  <path d="M3.4 20.6h17.2"/>
  <path d="M4.6 18C4.6 10 9 4.6 20 4"/>
  <circle cx="4.6" cy="18" r="1.3" class="fill"/>
  <circle cx="11.6" cy="10.6" r="1.3" class="fill"/>
  <circle cx="19.4" cy="4.6" r="1.3" class="fill"/>
</symbol>

<symbol id="i-depreciation" viewBox="0 0 24 24">
  <path d="M3.4 20.6h17.2"/>
  <path d="M4.6 5.4 20 17.4"/>
  <path d="M20 13.6v3.8h-3.8" class="thin"/>
  <rect x="4" y="4.4" width="4" height="4" rx=".8" class="thin"/>
</symbol>

<symbol id="i-amortization-schedule" viewBox="0 0 24 24">
  <rect x="3.4" y="3.4" width="17.2" height="17.2" rx="2"/>
  <path d="M3.4 8.4h17.2M9 8.4v12.2M3.4 14.4h17.2" class="thin"/>
  <path d="M11.6 11.4h6.4M11.6 17.4h6.4M5.6 11.4h1.2M5.6 17.4h1.2" class="thin"/>
</symbol>

<symbol id="i-business-ratios" viewBox="0 0 24 24">
  <circle cx="12" cy="12" r="8.8"/>
  <path d="M12 3.2v8.8l7.6 4.4"/>
  <path d="M12 12 4.4 16.4" class="thin"/>
</symbol>

<symbol id="i-uk-take-home-pay" viewBox="0 0 24 24">
  <rect x="2.6" y="5.4" width="18.8" height="13.2" rx="2"/>
  <path d="M2.6 9.4h18.8" class="thin"/>
  <path d="M6.4 13.4h4M6.4 15.8h6.4" class="thin"/>
  <circle cx="17.4" cy="14.6" r="2.4"/>
</symbol>

<symbol id="i-employer-cost" viewBox="0 0 24 24">
  <circle cx="8.6" cy="7.6" r="3.2"/>
  <path d="M2.8 20.4a5.8 5.8 0 0 1 11.6 0"/>
  <circle cx="17.6" cy="9.6" r="3.6"/>
  <path d="M16 9.6h3.2M16 8.2h3.2M17.6 7v5.2" class="thin"/>
</symbol>

<symbol id="i-discount-calculator" viewBox="0 0 24 24">
  <path d="M12.6 3.4H20v7.4l-8.8 8.8a2 2 0 0 1-2.8 0l-4.6-4.6a2 2 0 0 1 0-2.8z"/>
  <circle cx="16.2" cy="7.8" r="1.3" class="fill"/>
  <path d="M8 14.6 12 10.6" class="thin"/>
  <circle cx="8.4" cy="11" r="1.1" class="thin"/>
  <circle cx="11.6" cy="14.2" r="1.1" class="thin"/>
</symbol>

<symbol id="i-commission-calculator" viewBox="0 0 24 24">
  <path d="M3.4 20.6h17.2"/>
  <path d="M5 18v-3.4M9.4 18v-6.4M13.8 18v-9.4M18.2 18V5.4"/>
  <circle cx="18.2" cy="3.6" r="1.4" class="fill"/>
</symbol>

<symbol id="i-invoice-payment-terms" viewBox="0 0 24 24">
  <path d="M4.6 2.8v18.4l2.2-1.6 2.2 1.6 2.2-1.6 2.2 1.6V2.8z"/>
  <path d="M7.6 7.4h5.6M7.6 11h5.6M7.6 14.6h3.4" class="thin"/>
  <circle cx="17.4" cy="14.6" r="4.2"/>
  <path d="M17.4 12.4v2.4l1.6 1" class="thin"/>
</symbol>

<!-- ============ INDIA ============ -->

<symbol id="i-india" viewBox="0 0 24 24">
  <path d="M12 2.6 3.6 6v6.6c0 4.6 3.4 8 8.4 9.2 5-1.2 8.4-4.6 8.4-9.2V6z"/>
  <circle cx="12" cy="11.4" r="3"/>
  <path d="M12 8.4v6M9 11.4h6M9.9 9.3l4.2 4.2M14.1 9.3l-4.2 4.2" class="thin"/>
</symbol>

<symbol id="i-gst-calculator" viewBox="0 0 24 24">
  <rect x="4" y="2.8" width="16" height="18.4" rx="2"/>
  <path d="M7.4 6.4h9.2v3.6H7.4z"/>
  <path d="M8.6 13.4h1.4M13.9 13.4h1.4M8.6 17h1.4M13.9 17h1.4" class="thin"/>
  <circle cx="12" cy="13.4" r=".9" class="fill"/>
  <circle cx="12" cy="17" r=".9" class="fill"/>
</symbol>

<symbol id="i-india-income-tax" viewBox="0 0 24 24">
  <path d="M5.4 2.8v18.4h13.2V7.6L13.8 2.8z"/>
  <path d="M13.8 2.8v4.8h4.8" class="thin"/>
  <path d="M8.6 12.6h6.8M8.6 16.2h4.4" class="thin"/>
  <path d="M8.6 8.8h2.6" class="thin"/>
</symbol>

<symbol id="i-hra-exemption" viewBox="0 0 24 24">
  <path d="M3.4 10.6 12 3.8l8.6 6.8v9a1.4 1.4 0 0 1-1.4 1.4H4.8a1.4 1.4 0 0 1-1.4-1.4z"/>
  <path d="M9.6 14.4h4.8M12 12v4.8" class="thin"/>
</symbol>

<symbol id="i-india-capital-gains" viewBox="0 0 24 24">
  <path d="M3.4 20.6h17.2"/>
  <path d="M4.6 16.4 9.8 10l3.4 3.2L20 5.6"/>
  <path d="M16.6 5.4H20v3.4" class="thin"/>
  <circle cx="9.8" cy="10" r="1.2" class="fill"/>
</symbol>

<symbol id="i-tds-calculator" viewBox="0 0 24 24">
  <rect x="3.4" y="5.4" width="17.2" height="13.2" rx="2"/>
  <path d="M3.4 9.4h17.2" class="thin"/>
  <path d="M7 13.4h4.4M7 16h2.6" class="thin"/>
  <path d="M16.6 12.4v5.2M14.6 15.6l2 2 2-2"/>
</symbol>

<symbol id="i-sip-calculator" viewBox="0 0 24 24">
  <path d="M3.4 20.6h17.2"/>
  <rect x="4.8" y="15" width="2.6" height="3"/>
  <rect x="9" y="12" width="2.6" height="6"/>
  <rect x="13.2" y="8.6" width="2.6" height="9.4"/>
  <rect x="17.4" y="4.6" width="2.6" height="13.4"/>
  <path d="M4.6 3.6h3.2M6.2 2v3.2" class="thin"/>
</symbol>

<symbol id="i-lumpsum-returns" viewBox="0 0 24 24">
  <ellipse cx="12" cy="6.4" rx="7.4" ry="2.8"/>
  <path d="M4.6 6.4v5.2c0 1.6 3.3 2.8 7.4 2.8s7.4-1.2 7.4-2.8V6.4"/>
  <path d="M4.6 11.6v5.2c0 1.6 3.3 2.8 7.4 2.8s7.4-1.2 7.4-2.8v-5.2" class="thin"/>
</symbol>

<symbol id="i-ppf-calculator" viewBox="0 0 24 24">
  <rect x="3" y="7" width="18" height="13.4" rx="2"/>
  <path d="M8 7V5a2 2 0 0 1 2-2h4a2 2 0 0 1 2 2v2"/>
  <circle cx="12" cy="13.6" r="2.6"/>
  <path d="M12 11.4v4.4M10.6 12.8h2.8" class="thin"/>
</symbol>

<symbol id="i-epf-calculator" viewBox="0 0 24 24">
  <circle cx="12" cy="7" r="3.4"/>
  <path d="M4.6 20.6a7.4 7.4 0 0 1 14.8 0"/>
  <path d="M17.4 3.4h3.4v3.4" class="thin"/>
  <path d="M20.8 3.4 16.6 7.6" class="thin"/>
</symbol>

<symbol id="i-gratuity-calculator" viewBox="0 0 24 24">
  <rect x="3.4" y="8.6" width="17.2" height="12" rx="1.8"/>
  <path d="M3.4 13h17.2M12 8.6v12" class="thin"/>
  <path d="M12 8.6C10.6 5 8.6 3.4 7 3.4a2.6 2.6 0 0 0 0 5.2zM12 8.6c1.4-3.6 3.4-5.2 5-5.2a2.6 2.6 0 0 1 0 5.2z"/>
</symbol>

<symbol id="i-fd-rd-calculator" viewBox="0 0 24 24">
  <path d="M3.4 9.4 12 4l8.6 5.4M4.8 9.8v8.4M19.2 9.8v8.4M3.4 20.6h17.2"/>
  <path d="M12 11.4v5.2M10.4 12.8h3.2M10.4 15.2h3.2" class="thin"/>
</symbol>

<symbol id="i-nps-calculator" viewBox="0 0 24 24">
  <circle cx="12" cy="6.4" r="3"/>
  <path d="M6.6 20.6a5.4 5.4 0 0 1 10.8 0"/>
  <path d="M3.4 14.6a8.8 8.8 0 0 1 17.2 0" class="thin"/>
  <circle cx="12" cy="14.6" r="1.2" class="fill"/>
</symbol>

<symbol id="i-ctc-take-home" viewBox="0 0 24 24">
  <rect x="2.6" y="5" width="18.8" height="14" rx="2"/>
  <path d="M2.6 9.4h18.8" class="thin"/>
  <path d="M6.4 13h4.6M6.4 16h2.8" class="thin"/>
  <path d="M14.6 15.4h4.4M17.8 13.4l2 2-2 2"/>
</symbol>

<symbol id="i-emi-calculator" viewBox="0 0 24 24">
  <rect x="4.4" y="2.8" width="15.2" height="18.4" rx="2"/>
  <rect x="7.4" y="5.8" width="9.2" height="3.6" rx=".6"/>
  <circle cx="8.8" cy="13" r="1" class="fill"/>
  <circle cx="12" cy="13" r="1" class="fill"/>
  <circle cx="15.2" cy="13" r="1" class="fill"/>
  <circle cx="8.8" cy="17" r="1" class="fill"/>
  <circle cx="12" cy="17" r="1" class="fill"/>
  <circle cx="15.2" cy="17" r="1" class="fill"/>
</symbol>

<symbol id="i-advance-tax" viewBox="0 0 24 24">
  <rect x="3.4" y="5" width="17.2" height="16" rx="2"/>
  <path d="M3.4 9.8h17.2M8.4 2.8v4M15.6 2.8v4"/>
  <path d="M8 14.6h2.4M13.6 14.6H16" class="thin"/>
  <path d="M9.4 17.6l1.6 1.6 3.6-3.6"/>
</symbol>

<!-- ============ IMAGE ============ -->

<symbol id="i-image" viewBox="0 0 24 24">
  <rect x="2.6" y="4.4" width="18.8" height="15.2" rx="2"/>
  <circle cx="8.2" cy="9.4" r="1.8"/>
  <path d="m2.6 16.4 4.8-4 5.2 4.2 3.4-2.8 5.4 4.2"/>
</symbol>

<symbol id="i-image-compressor" viewBox="0 0 24 24">
  <rect x="4.4" y="7.4" width="15.2" height="9.2" rx="1.8"/>
  <path d="M12 2.6v3.4M10.4 4.6 12 2.8l1.6 1.8M12 21.4V18M10.4 19.4 12 21.2l1.6-1.8"/>
  <path d="M8 11.4h8M8 13.4h5" class="thin"/>
</symbol>

<symbol id="i-image-converter" viewBox="0 0 24 24">
  <rect x="2.4" y="3.6" width="8.4" height="8.4" rx="1.4"/>
  <rect x="13.2" y="12" width="8.4" height="8.4" rx="1.4"/>
  <path d="M13.2 6.6h5.4l-1.8-1.8M10.8 17.4H5.4l1.8 1.8"/>
</symbol>

<symbol id="i-bulk-image-resizer" viewBox="0 0 24 24">
  <rect x="7.4" y="7.4" width="13.2" height="13.2" rx="1.8"/>
  <path d="M4.8 16.6V4.8h11.8" class="thin"/>
  <path d="M2.6 13.4V2.6h10.8" class="thin"/>
  <path d="M11 17h6v-6M11 11l6 6" class="thin"/>
</symbol>

<symbol id="i-image-cropper" viewBox="0 0 24 24">
  <path d="M6.4 2.6v15h15M2.6 6.4h15v15"/>
</symbol>

<symbol id="i-social-media-resizer" viewBox="0 0 24 24">
  <rect x="2.6" y="6.4" width="9" height="11.2" rx="1.4"/>
  <rect x="13.6" y="3.4" width="7.8" height="7.8" rx="1.4"/>
  <rect x="13.6" y="13.6" width="7.8" height="5.4" rx="1.4"/>
</symbol>

<symbol id="i-circle-crop" viewBox="0 0 24 24">
  <circle cx="12" cy="12" r="8.4"/>
  <path d="M2.6 2.6h4.2M2.6 2.6v4.2M21.4 21.4h-4.2M21.4 21.4v-4.2" class="thin"/>
  <circle cx="12" cy="9.8" r="2.4" class="thin"/>
  <path d="M7.6 17.4a4.8 4.8 0 0 1 8.8 0" class="thin"/>
</symbol>

<symbol id="i-image-border" viewBox="0 0 24 24">
  <rect x="2.6" y="2.6" width="18.8" height="18.8" rx="2"/>
  <rect x="6.4" y="6.4" width="11.2" height="11.2" rx="1"/>
  <circle cx="9.4" cy="9.6" r="1" class="fill"/>
  <path d="m6.4 15.4 3-2.6 3 2.4 2.2-1.8 3 2.4" class="thin"/>
</symbol>

<symbol id="i-image-rotate-flip" viewBox="0 0 24 24">
  <path d="M20.4 11a8.4 8.4 0 1 0-2.2 6.4"/>
  <path d="M20.6 5.6v5h-5" class="thin"/>
  <path d="M12 7.6v8.8" class="thin"/>
</symbol>

<symbol id="i-photo-filters" viewBox="0 0 24 24">
  <circle cx="9" cy="9" r="5.6"/>
  <circle cx="15" cy="15" r="5.6"/>
</symbol>

<symbol id="i-blur-redact" viewBox="0 0 24 24">
  <rect x="2.6" y="4.4" width="18.8" height="15.2" rx="2"/>
  <path d="M6.6 9.4h3.6v3.6H6.6zM10.2 13h3.6v3.6h-3.6zM13.8 9.4h3.6v3.6h-3.6z" class="fill"/>
  <path d="M6.6 13h3.6v3.6H6.6z" class="thin"/>
</symbol>

<symbol id="i-exif-viewer" viewBox="0 0 24 24">
  <rect x="2.6" y="4.4" width="18.8" height="15.2" rx="2"/>
  <circle cx="10.6" cy="11.6" r="3.6"/>
  <path d="m13.4 14.4 3.6 3.6" class="thin"/>
  <path d="M5.6 7.4h3" class="thin"/>
</symbol>

<symbol id="i-exif-remover" viewBox="0 0 24 24">
  <rect x="2.6" y="4.4" width="18.8" height="15.2" rx="2"/>
  <path d="M8.4 9.4 15.6 16.6M15.6 9.4 8.4 16.6"/>
  <path d="M5.6 7.4h2.4" class="thin"/>
</symbol>

<symbol id="i-image-to-pdf" viewBox="0 0 24 24">
  <path d="M6 2.8h7.6L18.6 8v13.2H6z"/>
  <path d="M13.6 2.8V8h5" class="thin"/>
  <circle cx="10" cy="12.4" r="1.2" class="thin"/>
  <path d="m8 17 2.6-2.4 2 1.6 2.4-2" class="thin"/>
</symbol>

<symbol id="i-image-splitter" viewBox="0 0 24 24">
  <rect x="2.6" y="2.6" width="8" height="8" rx="1.2"/>
  <rect x="13.4" y="2.6" width="8" height="8" rx="1.2"/>
  <rect x="2.6" y="13.4" width="8" height="8" rx="1.2"/>
  <rect x="13.4" y="13.4" width="8" height="8" rx="1.2"/>
</symbol>

<symbol id="i-meme-generator" viewBox="0 0 24 24">
  <rect x="2.6" y="3.6" width="18.8" height="16.8" rx="2"/>
  <path d="M6.4 7.4h11.2" stroke-width="2.6"/>
  <path d="M6.4 16.6h11.2" stroke-width="2.6"/>
  <circle cx="9.4" cy="11.8" r="1.1" class="fill"/>
  <circle cx="14.6" cy="11.8" r="1.1" class="fill"/>
</symbol>

<symbol id="i-color-palette-extractor" viewBox="0 0 24 24">
  <path d="M12 3a9 9 0 1 0 0 18c1 0 1.7-.8 1.7-1.7 0-.5-.2-.9-.5-1.2-.3-.3-.5-.7-.5-1.2 0-1 .8-1.7 1.7-1.7h2A4.6 4.6 0 0 0 21 10.6C21 6.4 17 3 12 3z"/>
  <circle cx="7.4" cy="11" r="1.2" class="fill"/>
  <circle cx="10.4" cy="7" r="1.2" class="fill"/>
  <circle cx="15" cy="7.8" r="1.2" class="fill"/>
</symbol>

<symbol id="i-svg-optimizer" viewBox="0 0 24 24">
  <path d="M8.4 7.6 4.8 11.4l3.6 3.8M15.6 7.6l3.6 3.8-3.6 3.8"/>
  <path d="M13.4 4.6 10.6 19" class="thin"/>
  <path d="M17 2.8h4.2M19.1 2.8v4.2M19.1 2.8 15 6.9" class="thin"/>
</symbol>

<symbol id="i-image-to-base64" viewBox="0 0 24 24">
  <rect x="2.6" y="4.4" width="8.8" height="8.8" rx="1.4"/>
  <path d="m2.6 11.4 2.6-2.2 3 2.4 3.2-2.6" class="thin"/>
  <path d="M14.6 6.4h6.8M14.6 9.4h6.8M14.6 12.4h4.4" class="thin"/>
  <path d="M3.4 17h4M9.4 17h4M15.4 17h5.2M3.4 20h6.4M11.8 20h8.8" class="thin"/>
</symbol>

<symbol id="i-passport-photo" viewBox="0 0 24 24">
  <rect x="4.4" y="2.6" width="15.2" height="18.8" rx="1.8"/>
  <circle cx="12" cy="9.4" r="3"/>
  <path d="M7.4 17.4a4.8 4.8 0 0 1 9.2 0"/>
  <path d="M4.4 2.6 2.6 4.4M19.6 2.6l1.8 1.8" class="thin"/>
</symbol>

<symbol id="i-background-remover" viewBox="0 0 24 24">
  <path d="M3 3h3M9 3h3M15 3h3M21 3v3M21 9v3M21 15v3M18 21h3M12 21h3M6 21h3M3 18v3M3 12v3M3 6v3" class="thin"/>
  <circle cx="12" cy="9.6" r="3.2"/>
  <path d="M6.8 18.4a5.4 5.4 0 0 1 10.4 0"/>
</symbol>

<!-- ============ EVERYDAY / TEXT / HEALTH ============ -->

<symbol id="i-text" viewBox="0 0 24 24">
  <path d="M4 4.4h16M4 4.4v3M20 4.4v3M12 4.4v15.2M9 19.6h6"/>
</symbol>

<symbol id="i-age-calculator" viewBox="0 0 24 24">
  <circle cx="12" cy="12" r="8.8"/>
  <path d="M12 6.6V12l4 2.4"/>
  <path d="M12 2.6v1.6M21.4 12h-1.6M12 21.4v-1.6M2.6 12h1.6" class="thin"/>
</symbol>

<symbol id="i-date-add-subtract" viewBox="0 0 24 24">
  <rect x="3" y="5" width="18" height="16" rx="2"/>
  <path d="M3 9.6h18M8 2.8v4M16 2.8v4"/>
  <path d="M9 15h6M12 12v6" class="thin"/>
</symbol>

<symbol id="i-week-number" viewBox="0 0 24 24">
  <rect x="3" y="5" width="18" height="16" rx="2"/>
  <path d="M3 9.6h18M8 2.8v4M16 2.8v4"/>
  <rect x="6.4" y="12.6" width="11.2" height="4.4" rx=".8" class="thin"/>
</symbol>

<symbol id="i-business-days" viewBox="0 0 24 24">
  <rect x="3" y="5" width="18" height="16" rx="2"/>
  <path d="M3 9.6h18M8 2.8v4M16 2.8v4"/>
  <path d="M8.4 15.4l2 2 4.6-4.6"/>
</symbol>

<symbol id="i-tip-calculator" viewBox="0 0 24 24">
  <rect x="4" y="2.8" width="16" height="18.4" rx="2"/>
  <path d="M8 7.4h8M8 11h8" class="thin"/>
  <path d="M12 14v5M10 15.4h3a1.3 1.3 0 0 1 0 2.6h-2a1.3 1.3 0 0 0 0 2.6h3" class="thin"/>
</symbol>

<symbol id="i-fraction-calculator" viewBox="0 0 24 24">
  <path d="M5 12h14"/>
  <path d="M7.4 4.4h4.2M9.5 4.4v4.2M7.4 8.6h4.2" class="thin"/>
  <path d="M12.4 15.4h4.2M14.5 15.4v4.2M12.4 19.6h4.2" class="thin"/>
</symbol>

<symbol id="i-ratio-calculator" viewBox="0 0 24 24">
  <rect x="2.6" y="7" width="7.4" height="10" rx="1.2"/>
  <rect x="14" y="4" width="7.4" height="16" rx="1.2"/>
  <circle cx="12" cy="9.6" r=".9" class="fill"/>
  <circle cx="12" cy="14.4" r=".9" class="fill"/>
</symbol>

<symbol id="i-average-calculator" viewBox="0 0 24 24">
  <path d="M3.4 20.6h17.2"/>
  <path d="M3.4 13.4h17.2" stroke-dasharray="3 2.4" class="thin"/>
  <rect x="5" y="8" width="2.8" height="10"/>
  <rect x="10.6" y="15" width="2.8" height="3"/>
  <rect x="16.2" y="11" width="2.8" height="7"/>
</symbol>

<symbol id="i-prime-factorisation" viewBox="0 0 24 24">
  <circle cx="12" cy="4.6" r="2.2"/>
  <circle cx="6.6" cy="13" r="2.2"/>
  <circle cx="17.4" cy="13" r="2.2"/>
  <circle cx="12" cy="20.4" r="2.2"/>
  <path d="M10.6 6.4 8 11M13.4 6.4 16 11M8 14.8l2.6 4M16 14.8l-2.6 4" class="thin"/>
</symbol>

<symbol id="i-lcm-gcd" viewBox="0 0 24 24">
  <circle cx="9" cy="12" r="6"/>
  <circle cx="15" cy="12" r="6"/>
</symbol>

<symbol id="i-geometry-calculator" viewBox="0 0 24 24">
  <rect x="2.6" y="12.6" width="8" height="8" rx=".8"/>
  <circle cx="17.4" cy="16.6" r="4"/>
  <path d="M12 3 16.6 10.6H7.4z"/>
</symbol>

<symbol id="i-square-footage" viewBox="0 0 24 24">
  <path d="M3.4 3.4h17.2v17.2H3.4z" stroke-dasharray="3.4 2.6"/>
  <path d="M3.4 8.4h5v5"/>
  <path d="M12 12h6M12 16h4" class="thin"/>
</symbol>

<symbol id="i-roman-numerals" viewBox="0 0 24 24">
  <path d="M3.4 7.4v9.2M7.4 7.4l2.6 9.2 2.6-9.2M15.4 7.4h5.2M18 7.4v9.2M15.4 16.6h5.2"/>
</symbol>

<symbol id="i-number-base-converter" viewBox="0 0 24 24">
  <path d="M3.4 6.4h5M5.9 6.4v5M3.4 11.4h5" class="thin"/>
  <path d="M3.4 15h5M3.4 19h5" class="thin"/>
  <path d="M13.4 7.4h7.2l-2.4-2.4M20.6 16.6h-7.2l2.4 2.4"/>
</symbol>

<symbol id="i-random-number-generator" viewBox="0 0 24 24">
  <rect x="3.4" y="3.4" width="17.2" height="17.2" rx="2.6"/>
  <circle cx="8.4" cy="8.4" r="1.4" class="fill"/>
  <circle cx="15.6" cy="8.4" r="1.4" class="fill"/>
  <circle cx="12" cy="12" r="1.4" class="fill"/>
  <circle cx="8.4" cy="15.6" r="1.4" class="fill"/>
  <circle cx="15.6" cy="15.6" r="1.4" class="fill"/>
</symbol>

<symbol id="i-dice-roller" viewBox="0 0 24 24">
  <rect x="2.4" y="8.4" width="12" height="12" rx="2.2"/>
  <circle cx="6" cy="12" r="1.1" class="fill"/>
  <circle cx="10.8" cy="16.8" r="1.1" class="fill"/>
  <path d="M9 6.4 15 2.8l6.4 3.8v7l-4 2.4" class="thin"/>
</symbol>

<symbol id="i-gpa-calculator" viewBox="0 0 24 24">
  <path d="M12 3.4 22 8l-10 4.6L2 8z"/>
  <path d="M6 10.4v5.2c0 1.6 2.7 3 6 3s6-1.4 6-3v-5.2"/>
  <path d="M22 8v5.4" class="thin"/>
</symbol>

<symbol id="i-cooking-converter" viewBox="0 0 24 24">
  <path d="M6.4 3.4v6a3 3 0 0 0 6 0v-6M9.4 3.4v6M6.4 12.4h6v8.2h-6z" class="thin"/>
  <path d="M17.6 3.4c-1.6 2.6-2.4 4.6-2.4 6.4a2.4 2.4 0 0 0 4.8 0c0-1.8-.8-3.8-2.4-6.4z"/>
  <path d="M17.6 14.4v6.2" class="thin"/>
</symbol>

<symbol id="i-shoe-size-converter" viewBox="0 0 24 24">
  <path d="M4.4 17.6c0-3.4.6-5.6 1.4-8.4.5-1.8 1.6-2.8 3-2.8 1.6 0 2.4 1.2 2.6 3l.4 3.4c.2 1.4 1 2 2.4 2.4l3.6 1c1.4.4 2.2 1.2 2.2 2.4v1.6H4.4z"/>
  <path d="M4.4 20.6h17.6" class="thin"/>
</symbol>

<symbol id="i-bmr-tdee" viewBox="0 0 24 24">
  <path d="M12 20.6c-1.6-4-5.4-5.4-5.4-9.4A5.4 5.4 0 0 1 12 5.8a5.4 5.4 0 0 1 5.4 5.4c0 4-3.8 5.4-5.4 9.4z"/>
  <path d="M12 3.4v2.4" class="thin"/>
  <path d="M9.6 12.4h1.8l1-2.2 1.4 4 .8-1.8h1.4" class="thin"/>
</symbol>

<symbol id="i-body-fat" viewBox="0 0 24 24">
  <circle cx="12" cy="5" r="2.4"/>
  <path d="M12 7.6v6M8 10.4h8M12 13.6 9.4 20.6M12 13.6l2.6 7"/>
  <path d="M4.6 15.4h2M17.4 15.4h2" class="thin"/>
</symbol>

<symbol id="i-ideal-weight" viewBox="0 0 24 24">
  <path d="M12 3.4v2.6M4 20.6h16M6.6 20.6 8 8.4h8l1.4 12.2"/>
  <path d="M2.6 8.4h18.8" class="thin"/>
  <circle cx="12" cy="6.6" r="1.4"/>
</symbol>

<symbol id="i-water-intake" viewBox="0 0 24 24">
  <path d="M12 2.8c-3.6 4.4-6 7.6-6 10.4a6 6 0 0 0 12 0c0-2.8-2.4-6-6-10.4z"/>
  <path d="M9 13.6a3 3 0 0 0 3 3" class="thin"/>
</symbol>

<symbol id="i-heart-rate-zones" viewBox="0 0 24 24">
  <path d="M20.6 8.4c0 4.6-6.2 8.6-8.6 10.4C9.6 17 3.4 13 3.4 8.4A4.3 4.3 0 0 1 12 6.7a4.3 4.3 0 0 1 8.6 1.7z"/>
  <path d="M4 11.6h3.2l1.4-2.6 2.2 5 1.6-3.2 1 .8h6" class="thin"/>
</symbol>

<symbol id="i-pregnancy-due-date" viewBox="0 0 24 24">
  <circle cx="12" cy="12" r="8.8"/>
  <path d="M12 6.6V12l3.4 2" class="thin"/>
  <path d="M12 15.6c1.4-2 2.4-3.2 2.4-4.4a2.4 2.4 0 0 0-4.8 0c0 1.2 1 2.4 2.4 4.4z" class="fill"/>
</symbol>

<symbol id="i-ovulation-calculator" viewBox="0 0 24 24">
  <rect x="3" y="5" width="18" height="16" rx="2"/>
  <path d="M3 9.6h18M8 2.8v4M16 2.8v4"/>
  <circle cx="12" cy="15.4" r="2.6"/>
  <circle cx="12" cy="15.4" r=".9" class="fill"/>
</symbol>

<symbol id="i-word-counter" viewBox="0 0 24 24">
  <path d="M3.4 6.4h17.2M3.4 10.6h17.2M3.4 14.8h12M3.4 19h8"/>
  <circle cx="18.4" cy="17.6" r="3.4" class="thin"/>
  <path d="M18.4 15.8v3.6" class="thin"/>
</symbol>

<symbol id="i-text-diff" viewBox="0 0 24 24">
  <rect x="2.6" y="3.4" width="8" height="17.2" rx="1.4"/>
  <rect x="13.4" y="3.4" width="8" height="17.2" rx="1.4"/>
  <path d="M4.8 7.6h3.6M4.8 11.2h3.6M4.8 14.8h2.4" class="thin"/>
  <path d="M15.6 7.6h3.6M15.6 11.2h2M15.6 14.8h3.6" class="thin"/>
</symbol>

<symbol id="i-readability-score" viewBox="0 0 24 24">
  <path d="M3 5.4c2.6-1.6 5.4-1.6 8 0v13c-2.6-1.6-5.4-1.6-8 0zM21 5.4c-2.6-1.6-5.4-1.6-8 0v13c2.6-1.6 5.4-1.6 8 0z"/>
  <path d="M5.4 9h3.2M5.4 12h3.2M15.4 9h3.2M15.4 12h3.2" class="thin"/>
</symbol>

<symbol id="i-case-tools" viewBox="0 0 24 24">
  <path d="M3.4 5.4h17.2M3.4 9.6h11M3.4 13.8h17.2M3.4 18h8"/>
  <path d="M16.4 16.4l2.4 2.4 3.2-3.2"/>
</symbol>

<symbol id="i-number-to-words" viewBox="0 0 24 24">
  <path d="M3.4 8.4h4.4M5.6 8.4v7.2M3.4 15.6h4.4" class="thin"/>
  <path d="M12.4 7.6h8M12.4 12h8M12.4 16.4h5.4"/>
  <path d="M9.6 12h1.4" class="thin"/>
</symbol>

<symbol id="i-morse-code" viewBox="0 0 24 24">
  <circle cx="4.4" cy="12" r="1.4" class="fill"/>
  <circle cx="9" cy="12" r="1.4" class="fill"/>
  <path d="M13 12h7.6" stroke-width="2.8"/>
  <path d="M3 6.4h6M15 6.4h6M3 17.6h4M11 17.6h10" class="thin"/>
</symbol>

<symbol id="i-caesar-cipher" viewBox="0 0 24 24">
  <rect x="3" y="9.6" width="18" height="11" rx="2"/>
  <path d="M7.4 9.6V7a4.6 4.6 0 0 1 9.2 0v2.6"/>
  <circle cx="12" cy="15" r="1.4" class="fill"/>
</symbol>

<symbol id="i-palindrome-anagram" viewBox="0 0 24 24">
  <path d="M8.4 6.6 3.6 11.4l4.8 4.8M15.6 6.6l4.8 4.8-4.8 4.8"/>
  <path d="M12 5.4v13.2" stroke-dasharray="2.6 2.2" class="thin"/>
</symbol>

<symbol id="i-password-generator" viewBox="0 0 24 24">
  <rect x="3" y="10" width="18" height="10.6" rx="2"/>
  <path d="M7.4 10V6.8a4.6 4.6 0 0 1 9.2 0V10"/>
  <circle cx="8.4" cy="15.4" r="1.1" class="fill"/>
  <circle cx="12" cy="15.4" r="1.1" class="fill"/>
  <circle cx="15.6" cy="15.4" r="1.1" class="fill"/>
</symbol>

<!-- ============ DEV2 / LIVE ============ -->

<symbol id="i-hash-generator" viewBox="0 0 24 24">
  <path d="M9 3.4 7 20.6M17 3.4l-2 17.2M3.6 8.6h17M3 15.4h17.4"/>
</symbol>

<symbol id="i-regex-tester" viewBox="0 0 24 24">
  <path d="M12 4.4v7.2M12 8 18.2 4.4M12 8 5.8 4.4M12 8l6.2 3.6M12 8 5.8 11.6"/>
  <rect x="8.6" y="15.4" width="6.8" height="5.2" rx="1.4" class="fill"/>
</symbol>

<symbol id="i-cron-parser" viewBox="0 0 24 24">
  <circle cx="12" cy="12" r="8.6"/>
  <path d="M12 7v5l3.4 2"/>
  <path d="M3.4 3.4 6 6M20.6 3.4 18 6" class="thin"/>
</symbol>

<symbol id="i-markdown-preview" viewBox="0 0 24 24">
  <rect x="2.4" y="5.4" width="19.2" height="13.2" rx="2"/>
  <path d="M5.6 15.4V8.6l2.8 3.4 2.8-3.4v6.8"/>
  <path d="M15.6 8.6v6.8M13.2 13l2.4 2.4L18 13" class="thin"/>
</symbol>

<symbol id="i-scientific-calculator" viewBox="0 0 24 24">
  <rect x="4.4" y="2.6" width="15.2" height="18.8" rx="2"/>
  <rect x="7.2" y="5.4" width="9.6" height="3.4" rx=".6"/>
  <circle cx="8.6" cy="12.4" r="1" class="fill"/>
  <circle cx="12" cy="12.4" r="1" class="fill"/>
  <circle cx="15.4" cy="12.4" r="1" class="fill"/>
  <circle cx="8.6" cy="16" r="1" class="fill"/>
  <circle cx="12" cy="16" r="1" class="fill"/>
  <circle cx="15.4" cy="16" r="1" class="fill"/>
  <circle cx="12" cy="18.8" r="1" class="fill"/>
</symbol>

<symbol id="i-timezone-converter" viewBox="0 0 24 24">
  <circle cx="12" cy="12" r="8.8"/>
  <path d="M3.2 12h17.6"/>
  <path d="M12 3.2a13 13 0 0 1 0 17.6a13 13 0 0 1 0-17.6z"/>
  <path d="M12 8.6V12l2.4 1.6" class="thin"/>
</symbol>

<symbol id="i-countdown-timer" viewBox="0 0 24 24">
  <circle cx="12" cy="13.4" r="7.8"/>
  <path d="M12 9v4.4l3 1.8"/>
  <path d="M9.4 2.6h5.2M12 2.6v3" class="thin"/>
  <path d="M19.4 6 21 4.4" class="thin"/>
</symbol>

<symbol id="i-stopwatch-timer" viewBox="0 0 24 24">
  <circle cx="12" cy="13.6" r="7.6"/>
  <path d="M12 9.4v4.2h3.4"/>
  <path d="M9.6 2.6h4.8M12 2.6v3.4" class="thin"/>
  <path d="M18.4 7.4 20.4 5.4M5.6 7.4 3.6 5.4" class="thin"/>
</symbol>
<!-- PDF TOOL ICONS: generated by build-pdf.js, do not edit -->
<symbol id="i-pdf" viewBox="0 0 24 24">
  <path d="M6 2.8h7.6L18.6 8v13.2H6z"/>
  <path d="M13.6 2.8V8h5" class="thin"/>
  <path d="M8.8 12.4h1.6a1.2 1.2 0 0 1 0 2.4H8.8v2.8M13 12.4h1.4a1.6 1.6 0 0 1 1.6 1.6v1.6a1.6 1.6 0 0 1-1.6 1.6H13z" class="thin"/>
</symbol>
<symbol id="i-merge-pdf" viewBox="0 0 24 24">
  <rect x="2.4" y="3" width="8" height="10" rx="1.2"/>
  <rect x="13.6" y="3" width="8" height="10" rx="1.2"/>
  <path d="M6.4 13v3.4a1.6 1.6 0 0 0 1.6 1.6h8a1.6 1.6 0 0 0 1.6-1.6V13"/>
  <path d="M12 15.6v5.6M9.6 18.8 12 21.4l2.4-2.6"/>
</symbol>
<symbol id="i-split-pdf" viewBox="0 0 24 24">
  <rect x="8" y="2.6" width="8" height="7" rx="1.2"/>
  <path d="M12 9.6v3.4M6 13h12M6 13v2.4M18 13v2.4"/>
  <rect x="2.4" y="15.4" width="7.2" height="6" rx="1.2"/>
  <rect x="14.4" y="15.4" width="7.2" height="6" rx="1.2"/>
</symbol>
<symbol id="i-extract-pdf-pages" viewBox="0 0 24 24">
  <rect x="2.6" y="4" width="11" height="14" rx="1.4" stroke-dasharray="3 2.4"/>
  <rect x="9.4" y="7" width="12" height="14" rx="1.4"/>
  <path d="M13.4 12.6h4M15.4 10.6v4" class="thin"/>
</symbol>
<symbol id="i-delete-pdf-pages" viewBox="0 0 24 24">
  <path d="M6 2.8h7.6L18.6 8v13.2H6z"/>
  <path d="M13.6 2.8V8h5" class="thin"/>
  <path d="M9.4 12.4 14.6 17.6M14.6 12.4 9.4 17.6"/>
</symbol>
<symbol id="i-rotate-pdf" viewBox="0 0 24 24">
  <path d="M20.4 12a8.4 8.4 0 1 1-2.4-5.9"/>
  <path d="M20.6 3.4v5h-5" class="thin"/>
  <rect x="8.4" y="8.6" width="7.2" height="8.8" rx="1"/>
</symbol>
<symbol id="i-pdf-metadata" viewBox="0 0 24 24">
  <path d="M6 2.8h7.6L18.6 8v13.2H6z"/>
  <path d="M13.6 2.8V8h5" class="thin"/>
  <path d="M8.8 12h6.4M8.8 15h6.4M8.8 18h3.4" class="thin"/>
  <circle cx="17" cy="17.4" r="3.4" class="thin"/>
  <path d="M17 15.8v1.6l1.2.8" class="thin"/>
</symbol>
<symbol id="i-pdf-inspector" viewBox="0 0 24 24">
  <path d="M6 2.8h7.6L18.6 8v13.2H6z"/>
  <path d="M13.6 2.8V8h5" class="thin"/>
  <circle cx="11.4" cy="13.6" r="3.2"/>
  <path d="m13.8 16 2.8 2.8"/>
</symbol>
<symbol id="i-watermark-pdf" viewBox="0 0 24 24">
  <path d="M6 2.8h7.6L18.6 8v13.2H6z"/>
  <path d="M13.6 2.8V8h5" class="thin"/>
  <path d="M8.2 18 16.4 10.4" stroke-width="2.6" opacity=".45"/>
</symbol>
<symbol id="i-pdf-page-numbers" viewBox="0 0 24 24">
  <path d="M6 2.8h7.6L18.6 8v13.2H6z"/>
  <path d="M13.6 2.8V8h5" class="thin"/>
  <path d="M8.8 11.6h6.4M8.8 14.2h6.4" class="thin"/>
  <path d="M11 18.8h1.2v-2.4h-1M13.6 18.8h2.2" class="thin"/>
  <circle cx="9.4" cy="18.6" r="1" class="fill"/>
</symbol>
<symbol id="i-text-to-pdf" viewBox="0 0 24 24">
  <path d="M3 4.4h9M7.5 4.4v13.2M5 17.6h5" class="thin"/>
  <path d="M13.4 6h4.2L21 9.4v11.2h-7.6z"/>
  <path d="M17.6 6v3.4h3.4" class="thin"/>
</symbol>
<symbol id="i-invoice-pdf" viewBox="0 0 24 24">
  <path d="M5.4 2.8v18.4l2.2-1.6 2.2 1.6 2.2-1.6 2.2 1.6 2.2-1.6 2.2 1.6V2.8z"/>
  <path d="M8.6 7.4h6.8M8.6 11h6.8" class="thin"/>
  <path d="M12 13.4v4M10.2 14.6h2.6a1.1 1.1 0 0 1 0 2.2h-1.4a1.1 1.1 0 0 0 0 2.2h2.6" class="thin"/>
</symbol>
<symbol id="i-paper-pdf" viewBox="0 0 24 24">
  <rect x="4" y="2.8" width="16" height="18.4" rx="1.6"/>
  <path d="M4 8h16M4 13h16M4 18h16" class="thin"/>
  <path d="M9.4 2.8v18.4M14.6 2.8v18.4" class="thin"/>
</symbol>
<symbol id="i-label-pdf" viewBox="0 0 24 24">
  <rect x="3" y="3" width="8" height="5.4" rx="1"/>
  <rect x="13" y="3" width="8" height="5.4" rx="1"/>
  <rect x="3" y="9.4" width="8" height="5.4" rx="1"/>
  <rect x="13" y="9.4" width="8" height="5.4" rx="1"/>
  <rect x="3" y="15.8" width="8" height="5.4" rx="1"/>
  <rect x="13" y="15.8" width="8" height="5.4" rx="1"/>
</symbol>
<symbol id="i-certificate-pdf" viewBox="0 0 24 24">
  <rect x="2.6" y="3.4" width="18.8" height="12.8" rx="1.6"/>
  <path d="M6.4 7.4h11.2M6.4 10.4h7.4" class="thin"/>
  <circle cx="16.6" cy="17.4" r="3"/>
  <path d="M14.6 19.6 13.8 22.4l2.8-1.4 2.8 1.4-.8-2.8"/>
</symbol>
<symbol id="i-pdf-to-images" viewBox="0 0 24 24">
  <path d="M4 2.8h6.6L14.6 7v6.4H4z"/>
  <path d="M10.6 2.8V7h4" class="thin"/>
  <rect x="9.4" y="10.6" width="11.6" height="10.6" rx="1.4"/>
  <circle cx="12.8" cy="14" r="1.2"/>
  <path d="m9.4 19.4 3-2.6 2.6 2 2-1.6 4 3" class="thin"/>
</symbol>
<symbol id="i-pdf-organise" viewBox="0 0 24 24">
  <rect x="2.4" y="4" width="6" height="8" rx="1"/>
  <rect x="9.6" y="4" width="6" height="8" rx="1"/>
  <rect x="16.8" y="4" width="4.8" height="8" rx="1" stroke-dasharray="2.6 2"/>
  <path d="M4.4 16.4h15.2M17 13.8l2.6 2.6-2.6 2.6" />
</symbol>
<!-- /PDF TOOL ICONS -->
</svg>